<?xml version="1.0"?><svg fill="#000000" xmlns="http://www.w3.org/2000/svg" viewBox="0 0 32 32" width="32px" height="32px">    <path d="M 3 6 L 3 7 L 3 26 L 29 26 L 29 6 L 3 6 z M 5 8 L 7 8 L 7 24 L 5 24 L 5 8 z M 9 8 L 27 8 L 27 24 L 9 24 L 9 8 z M 18 9 C 14.145851 9 11 12.145851 11 16 C 11 19.854149 14.145851 23 18 23 C 21.854149 23 25 19.854149 25 16 C 25 12.145851 21.854149 9 18 9 z M 18 11 C 20.773268 11 23 13.226732 23 16 C 23 18.773268 20.773268 21 18 21 C 15.226732 21 13 18.773268 13 16 C 13 13.226732 15.226732 11 18 11 z M 18 15 A 1 1 0 0 0 17 16 A 1 1 0 0 0 18 17 A 1 1 0 0 0 19 16 A 1 1 0 0 0 18 15 z"/></svg>