<svg fill="#000000" xmlns="http://www.w3.org/2000/svg" viewBox="0 0 32 32" width="32px" height="32px"><path d="M 27 4.28125 L 25.78125 4.53125 L 11.78125 7.46875 L 11 7.625 L 11 19.5625 C 10.40625 19.214844 9.734375 19 9 19 C 6.800781 19 5 20.800781 5 23 C 5 25.199219 6.800781 27 9 27 C 11.199219 27 13 25.199219 13 23 L 13 13.25 L 25 10.75 L 25 17.5625 C 24.40625 17.214844 23.734375 17 23 17 C 20.800781 17 19 18.800781 19 21 C 19 23.199219 20.800781 25 23 25 C 25.199219 25 27 23.199219 27 21 Z M 25 6.75 L 25 8.6875 L 13 11.21875 L 13 9.25 Z M 23 19 C 24.117188 19 25 19.882813 25 21 C 25 22.117188 24.117188 23 23 23 C 21.882813 23 21 22.117188 21 21 C 21 19.882813 21.882813 19 23 19 Z M 9 21 C 10.117188 21 11 21.882813 11 23 C 11 24.117188 10.117188 25 9 25 C 7.882813 25 7 24.117188 7 23 C 7 21.882813 7.882813 21 9 21 Z"/></svg>